<svg viewBox="0 0 1440 1024" fill="none" xmlns="http://www.w3.org/2000/svg">
  <g id="Preloader">
    <path fill="#fff" d="M0 0h1440v1024H0z"/>
    <g id="Hero">
      <path id="Rectangle 1" fill="#F7D574" d="M0 0h1440v1024H0z"/>
    </g>
    <circle id="circle" cx="719.5" cy="450.5" r="111.5" fill="#E37A30"/>
    <g id="pasta">
      <g id="Frame" stroke="#623B02" stroke-width="2" stroke-miterlimit="10">
        <path id="outline" d="M807.972 410.863v4.513c-4.685 1.473-8.085 5.848-8.085 11.006a11.5 11.5 0 0 0 3.377 8.151 11.581 11.581 0 0 0 4.708 2.855v1.428c-4.685 1.451-8.085 5.825-8.085 10.983 0 3.178 1.287 6.056 3.377 8.128a11.104 11.104 0 0 0 4.708 2.855v1.428c-4.685 1.474-8.085 5.849-8.085 11.006a11.5 11.5 0 0 0 3.377 8.151 11.594 11.594 0 0 0 4.708 2.856v6.792c0 3.017-1.125 5.664-2.917 7.645-.436.506-.919.967-1.424 1.381a15.27 15.27 0 0 1-1.424.967c-3.33 1.888-7.602 2.165-11.415-.046l-8.108-4.697-.322-.184-19.752-11.421-.483-.299-5.949-3.431-13.804-7.99-.482-.276-16.951-9.809a11.921 11.921 0 0 0-3.1-1.221 2.443 2.443 0 0 0-.437-.092 11.418 11.418 0 0 0-7.924 1.313l-12.633 7.322-.505.276-18.076 10.477-1.654.967-.528.299-19.73 11.421-.505.276-12.219 7.069c-7.626 4.421-17.181-1.105-17.181-9.947v-6.585a11.293 11.293 0 0 0 5.513-3.063 11.58 11.58 0 0 0 0-16.302 11.291 11.291 0 0 0-5.513-3.062v-.99c2.136-.484 4.02-1.589 5.513-3.086a11.48 11.48 0 0 0 3.353-8.128c0-3.177-1.286-6.056-3.353-8.128-1.493-1.497-3.377-2.602-5.513-3.085v-.99a11.293 11.293 0 0 0 5.513-3.063 11.576 11.576 0 0 0 3.353-8.151c0-2.809-1.011-5.388-2.664-7.368a11.307 11.307 0 0 0-6.202-3.822v-4.329c0-8.842 9.555-14.368 17.181-9.947l14.171 8.197.482.276 19.776 11.444.207.115.276.161 19.752 11.444.483.276 10.703 6.194a11.371 11.371 0 0 0 10.083.668 2.94 2.94 0 0 0 .506-.207c.298-.139.574-.3.872-.461l18.903-10.937.506-.299 11.828-6.839 7.902-4.582.436-.253 19.753-11.421.092-.069 6.431-3.707c4.019-2.326 8.544-1.912 11.943.299a11.482 11.482 0 0 1 2.573 2.256c.505.599.965 1.267 1.332 2.004.85 1.565 1.332 3.407 1.332 5.388Z" fill="#E3CEB0"/>
        <g id="details">
          <path id="Vector" d="m731.763 446.23 44.559-12.411"/>
          <path id="Vector_2" d="m731.051 455.049 46.006 4.697"/>
          <path id="Vector_3" d="M706.658 446.23 662.1 433.819"/>
          <path id="Vector_4" d="m707.371 455.049-46.006 4.697"/>
        </g>
      </g>
    </g>
    <path id="dot 3" d="M873.283 636.749V645h11.002v-8.251h-11.002Z" fill="#623B02"/>
    <path id="dot 2" d="M846.392 636.749V645h11.002v-8.251h-11.002Z" fill="#623B02"/>
    <path id="dot 1" d="M819.5 636.749V645h11.002v-8.251H819.5Z" fill="#623B02"/>
    <g id="G" fill="#759312">
      <path d="M786.429 634.313h8.86c-1.658 2.142-4.43 2.394-8.776 2.394-4.514-.063-8.336-.861-8.273-5.501v-.693c-.063-4.598 3.759-5.438 8.273-5.501 1.617 0 3.086.168 4.388.504 1.302.336 2.31.965 3.002 1.91h11.695c-1.238-8.692-9.301-11.359-19.085-11.359-10.624.021-19.317 3.087-19.275 13.774v2.057c-.042 10.666 8.651 13.732 19.275 13.774 4.787 0 9.763-1.155 13.038-4.388l.546 4.388h5.501v-16.188h-19.169v4.829Z"/>
      <path d="M786.429 634.313h8.86c-1.658 2.142-4.43 2.394-8.776 2.394-4.514-.063-8.336-.861-8.273-5.501v-.693c-.063-4.598 3.759-5.438 8.273-5.501 1.617 0 3.086.168 4.388.504 1.302.336 2.31.965 3.002 1.91h11.695c-1.238-8.692-9.301-11.359-19.085-11.359-10.624.021-19.317 3.087-19.275 13.774v2.057c-.042 10.666 8.651 13.732 19.275 13.774 4.787 0 9.763-1.155 13.038-4.388l.546 4.388h5.501v-16.188h-19.169v4.829Z"/>
    </g>
    <g id="N" fill="#E37A30">
      <path d="m751.075 631.709-12.387-14.949h-15.139v28.219h11.002v-17.238l15.159 17.238h12.388V616.76h-11.023v14.949Z"/>
      <path d="m751.075 631.709-12.387-14.949h-15.139v28.219h11.002v-17.238l15.159 17.238h12.388V616.76h-11.023v14.949Z"/>
    </g>
    <g id="I" fill="#C94922">
      <path d="M705.903 616.76v28.219h11.002V616.76h-11.002Z"/>
      <path d="M705.903 616.76v28.219h11.002V616.76h-11.002Z"/>
    </g>
    <g id="D" fill="#759312">
      <path d="M690.17 630.912c0 2.834-1.617 5.165-4.472 5.165h-12.052v-10.33h12.052c2.855 0 4.472 2.309 4.472 5.165Zm-27.526-14.11v28.219h25.111c7.748.105 13.501-6.446 13.438-14.109.063-7.706-5.69-14.215-13.438-14.11h-25.111Z"/>
      <path d="M690.17 630.912c0 2.834-1.617 5.165-4.472 5.165h-12.052v-10.33h12.052c2.855 0 4.472 2.309 4.472 5.165Zm-27.526-14.11v28.219h25.111c7.748.105 13.501-6.446 13.438-14.109.063-7.706-5.69-14.215-13.438-14.11h-25.111Z"/>
    </g>
    <g id="A" fill="#E37A30">
      <path d="m637.105 624.97 3.864 8.335h-7.748l3.884-8.335Zm-21.688 20.051h12.387l2.226-4.829h14.13l2.226 4.829h12.387l-15.138-28.219h-13.08l-15.138 28.219Z"/>
      <path d="m637.105 624.97 3.864 8.335h-7.748l3.884-8.335Zm-21.688 20.051h12.387l2.226-4.829h14.13l2.226 4.829h12.387l-15.138-28.219h-13.08l-15.138 28.219Z"/>
    </g>
    <g id="O" fill="#C94922">
      <path d="M596.163 615.417c-10.624.021-19.317 3.086-19.275 13.773v2.058c-.042 10.666 8.651 13.752 19.275 13.773 10.603-.021 19.295-3.107 19.253-13.773v-2.058c0-10.666-8.629-13.773-19.253-13.773Zm8.251 15.138c.063 4.619-3.758 5.459-8.251 5.522-4.514-.063-8.336-.903-8.273-5.522v-.693c-.063-4.598 3.759-5.438 8.273-5.501 4.493.063 8.314.903 8.251 5.501v.693Z"/>
      <path d="M596.163 615.417c-10.624.021-19.317 3.086-19.275 13.773v2.058c-.042 10.666 8.651 13.752 19.275 13.773 10.603-.021 19.295-3.107 19.253-13.773v-2.058c0-10.666-8.629-13.773-19.253-13.773Zm8.251 15.138c.063 4.619-3.758 5.459-8.251 5.522-4.514-.063-8.336-.903-8.273-5.522v-.693c-.063-4.598 3.759-5.438 8.273-5.501 4.493.063 8.314.903 8.251 5.501v.693Z"/>
    </g>
    <path id="L" d="M540.42 616.76v28.219h33.027v-8.944h-22.025V616.76H540.42Z" fill="#759312"/>
  </g>
</svg>
